<svg width="35" height="20" viewBox="0 0 35 20" fill="none" xmlns="http://www.w3.org/2000/svg">
<path id="Path 1879" d="M31.012 0.50798C29.9634 0.51167 28.9588 0.929855 28.2174 1.67133C27.4759 2.4128 27.0577 3.4174 27.054 4.46599C27.058 5.1719 27.2543 5.86337 27.622 6.46599L24.582 11.796C24.0253 11.5077 23.4089 11.3533 22.782 11.345C21.9951 11.3493 21.2263 11.581 20.568 12.012L16.768 6.68199C17.2154 6.03045 17.4543 5.25835 17.453 4.46799C17.453 3.94822 17.3506 3.43353 17.1517 2.95332C16.9528 2.47312 16.6613 2.03678 16.2937 1.66925C15.9262 1.30172 15.4899 1.01017 15.0097 0.811264C14.5295 0.612356 14.0148 0.509979 13.495 0.509979C12.9752 0.509979 12.4606 0.612356 11.9803 0.811264C11.5001 1.01017 11.0638 1.30172 10.6963 1.66925C10.3287 2.03678 10.0372 2.47312 9.83829 2.95332C9.63938 3.43353 9.53701 3.94822 9.53701 4.46799C9.54247 5.08985 9.69714 5.70132 9.98801 6.25099L5.95801 11.914C5.35535 11.5463 4.66397 11.3496 3.95801 11.345C3.17519 11.345 2.40994 11.5771 1.75905 12.012C1.10816 12.4469 0.60086 13.0651 0.301288 13.7883C0.00171643 14.5116 -0.0766672 15.3074 0.0760531 16.0751C0.228773 16.8429 0.605738 17.5482 1.15927 18.1017C1.71281 18.6553 2.41806 19.0322 3.18584 19.1849C3.95362 19.3377 4.74943 19.2593 5.47266 18.9597C6.19589 18.6601 6.81405 18.1528 7.24897 17.5019C7.68388 16.851 7.916 16.0858 7.916 15.303C7.91189 14.5971 7.71553 13.9057 7.34801 13.303L11.28 7.73799C11.8605 8.14149 12.5412 8.37693 13.2469 8.4184C13.9527 8.45986 14.6562 8.30574 15.28 7.97299L19.255 13.499C18.9666 14.0557 18.8121 14.672 18.804 15.299C18.804 16.3487 19.221 17.3554 19.9633 18.0977C20.7055 18.84 21.7123 19.257 22.762 19.257C23.8117 19.257 24.8185 18.84 25.5607 18.0977C26.303 17.3554 26.72 16.3487 26.72 15.299C26.7187 14.5118 26.4872 13.7423 26.054 13.085L28.996 7.85399C29.599 8.22081 30.2902 8.41711 30.996 8.42198C32.0457 8.42463 33.0535 8.01018 33.7977 7.26979C34.5418 6.5294 34.9614 5.52371 34.964 4.47398C34.9667 3.42426 34.5522 2.41648 33.8118 1.67233C33.0714 0.928188 32.0657 0.508634 31.016 0.505981L31.012 0.50798ZM13.526 6.50798C13.1067 6.50818 12.6967 6.38401 12.3479 6.15118C11.9992 5.91836 11.7273 5.58733 11.5667 5.19997C11.4061 4.8126 11.3639 4.38631 11.4456 3.97501C11.5273 3.5637 11.7291 3.18585 12.0256 2.88927C12.322 2.59268 12.6998 2.39067 13.111 2.30879C13.5223 2.22691 13.9486 2.26883 14.3361 2.42926C14.7235 2.58969 15.0547 2.86141 15.2876 3.21007C15.5206 3.55872 15.645 3.96865 15.645 4.38799C15.645 4.95007 15.4218 5.48916 15.0244 5.8867C14.6271 6.28425 14.0881 6.50772 13.526 6.50798ZM22.778 17.529C22.3587 17.529 21.9488 17.4047 21.6002 17.1717C21.2516 16.9388 20.9798 16.6077 20.8194 16.2203C20.6589 15.8329 20.6169 15.4066 20.6987 14.9954C20.7805 14.5842 20.9824 14.2064 21.2789 13.9099C21.5754 13.6134 21.9532 13.4115 22.3644 13.3297C22.7757 13.2479 23.2019 13.2899 23.5893 13.4504C23.9767 13.6108 24.3078 13.8825 24.5407 14.2312C24.7737 14.5798 24.898 14.9897 24.898 15.409C24.898 15.9712 24.6747 16.5105 24.2771 16.9081C23.8795 17.3056 23.3403 17.529 22.778 17.529Z" fill="white"/>
</svg>
