<svg width="30" height="26" viewBox="0 0 30 26" fill="none" xmlns="http://www.w3.org/2000/svg">
<g id="Group 3200">
<path id="Rectangle 2593" d="M11.064 4.80499H2.471C1.53211 4.80499 0.770996 5.56611 0.770996 6.50499C0.770996 7.44388 1.53211 8.20499 2.471 8.20499H11.064C12.0029 8.20499 12.764 7.44388 12.764 6.50499C12.764 5.56611 12.0029 4.80499 11.064 4.80499Z" fill="white"/>
<g id="Group 3199">
<path id="Rectangle 2594" d="M28.0388 16.195H18.4278C17.77 16.195 17.2368 16.7282 17.2368 17.386V18.404C17.2368 19.0618 17.77 19.595 18.4278 19.595H28.0388C28.6966 19.595 29.2298 19.0618 29.2298 18.404V17.386C29.2298 16.7282 28.6966 16.195 28.0388 16.195Z" fill="white"/>
<path id="Rectangle 2595" d="M28.0388 21.143H18.4278C17.77 21.143 17.2368 21.6762 17.2368 22.334V23.352C17.2368 24.0098 17.77 24.543 18.4278 24.543H28.0388C28.6966 24.543 29.2298 24.0098 29.2298 23.352V22.334C29.2298 21.6762 28.6966 21.143 28.0388 21.143Z" fill="white"/>
</g>
<path id="Path 1883" d="M28.0388 4.80499H24.9328V1.705C24.9328 1.38904 24.8074 1.08599 24.584 0.862473C24.3607 0.638958 24.0578 0.513266 23.7418 0.513H22.7248C22.4088 0.513266 22.1059 0.638958 21.8826 0.862473C21.6593 1.08599 21.5338 1.38904 21.5338 1.705V4.80499H18.4278C18.1118 4.80526 17.8089 4.93097 17.5856 5.15448C17.3623 5.37799 17.2368 5.68103 17.2368 5.99699V7.013C17.2368 7.32897 17.3623 7.632 17.5856 7.85551C17.8089 8.07903 18.1118 8.20474 18.4278 8.205H21.5338V11.305C21.5338 11.621 21.6593 11.924 21.8826 12.1475C22.1059 12.371 22.4088 12.4967 22.7248 12.497H23.7418C24.0578 12.4967 24.3607 12.371 24.584 12.1475C24.8074 11.924 24.9328 11.621 24.9328 11.305V8.205H28.0388C28.3548 8.20474 28.6577 8.07903 28.881 7.85551C29.1044 7.632 29.2298 7.32897 29.2298 7.013V5.998C29.2299 5.84147 29.1992 5.68643 29.1395 5.54176C29.0797 5.39709 28.992 5.26561 28.8814 5.15483C28.7708 5.04405 28.6395 4.95614 28.4949 4.89612C28.3503 4.83609 28.1954 4.80512 28.0388 4.80499Z" fill="white"/>
<path id="Path 1884" d="M9.1712 20.369L11.3712 18.169C11.5945 17.9455 11.72 17.6425 11.72 17.3265C11.72 17.0106 11.5945 16.7075 11.3712 16.484L10.6522 15.765C10.4287 15.5417 10.1257 15.4163 9.80971 15.4163C9.49375 15.4163 9.19072 15.5417 8.96721 15.765L6.76721 17.965L4.56721 15.765C4.3437 15.5417 4.04067 15.4163 3.72472 15.4163C3.40876 15.4163 3.10573 15.5417 2.88222 15.765L2.16321 16.484C1.93989 16.7075 1.81445 17.0106 1.81445 17.3265C1.81445 17.6425 1.93989 17.9455 2.16321 18.169L4.3632 20.369L2.16321 22.569C1.93989 22.7925 1.81445 23.0956 1.81445 23.4115C1.81445 23.7275 1.93989 24.0305 2.16321 24.254L2.88222 24.973C3.10573 25.1963 3.40876 25.3218 3.72472 25.3218C4.04067 25.3218 4.3437 25.1963 4.56721 24.973L6.76721 22.773L8.96721 24.973C9.19072 25.1963 9.49375 25.3218 9.80971 25.3218C10.1257 25.3218 10.4287 25.1963 10.6522 24.973L11.3712 24.254C11.5945 24.0305 11.72 23.7275 11.72 23.4115C11.72 23.0956 11.5945 22.7925 11.3712 22.569L9.1712 20.369Z" fill="white"/>
</g>
</svg>
