<svg width="34" height="20" viewBox="0 0 34 20" fill="none" xmlns="http://www.w3.org/2000/svg">
<g id="Group 3201">
<path id="Path 1885" d="M9.92294 7.99202L6.88394 4.95503C6.82182 4.89269 6.77333 4.8181 6.74156 4.73603C6.70979 4.65397 6.69542 4.5662 6.69937 4.47828C6.70332 4.39037 6.72551 4.30424 6.76451 4.22535C6.80351 4.14646 6.85849 4.07655 6.92595 4.02003C9.78064 1.75585 13.3145 0.518647 16.9581 0.507763C20.6016 0.496878 24.1428 1.71295 27.011 3.96003C27.0811 4.01568 27.1386 4.08552 27.1797 4.16499C27.2209 4.24446 27.2448 4.33176 27.2498 4.42112C27.2548 4.51049 27.2408 4.59991 27.2088 4.68348C27.1768 4.76706 27.1274 4.84289 27.0639 4.90602L24.0069 7.95201C23.9003 8.0574 23.7599 8.12182 23.6105 8.13389C23.461 8.14596 23.3121 8.10492 23.1899 8.01802C21.3655 6.73356 19.1868 6.04824 16.9556 6.05702C14.7244 6.0658 12.5512 6.76825 10.737 8.06703C10.6141 8.15218 10.4652 8.19134 10.3163 8.17762C10.1674 8.16391 10.0282 8.09819 9.92294 7.99202Z" fill="white"/>
<path id="Path 1886" d="M0.774849 14.858C1.12654 11.9225 2.27697 9.13982 4.10085 6.81299C4.15606 6.74141 4.22592 6.68243 4.30575 6.64002C4.38558 6.59761 4.47354 6.57273 4.56376 6.56705C4.65398 6.56137 4.74436 6.57503 4.82888 6.60709C4.9134 6.63915 4.99011 6.68891 5.05386 6.75299L8.10685 9.83298C8.21151 9.93777 8.27598 10.076 8.28896 10.2236C8.30194 10.3711 8.2626 10.5185 8.17785 10.64C7.25087 11.9586 6.62917 13.4671 6.35786 15.056C6.33136 15.2018 6.25444 15.3337 6.14056 15.4286C6.02668 15.5234 5.88308 15.5753 5.73486 15.575H1.40285C1.31268 15.5747 1.22359 15.5553 1.14152 15.5179C1.05944 15.4806 0.986269 15.4262 0.926857 15.3584C0.867445 15.2905 0.823153 15.2108 0.796944 15.1245C0.770735 15.0383 0.763204 14.9474 0.774849 14.858Z" fill="white"/>
<path id="Path 1887" d="M27.627 15.062C27.3554 13.4678 26.7294 11.9549 25.795 10.635C25.7093 10.5131 25.6695 10.3648 25.6826 10.2164C25.6958 10.0679 25.7611 9.92895 25.8669 9.82404L28.9339 6.75504C28.998 6.69153 29.0748 6.64236 29.1592 6.61075C29.2437 6.57914 29.3339 6.5658 29.4239 6.57166C29.5139 6.57752 29.6016 6.60245 29.6813 6.64475C29.7609 6.68705 29.8307 6.74577 29.886 6.81705C31.7104 9.14389 32.8597 11.9278 33.2079 14.864C33.2196 14.9534 33.2121 15.0442 33.1859 15.1305C33.1596 15.2167 33.1153 15.2964 33.0559 15.3641C32.9965 15.4319 32.9233 15.4862 32.8412 15.5234C32.7591 15.5606 32.6701 15.58 32.58 15.58H28.25C28.1018 15.5808 27.9581 15.5292 27.8441 15.4345C27.7302 15.3397 27.6533 15.2079 27.627 15.062Z" fill="white"/>
<path id="Path 1888" d="M18.96 17.251C18.9772 17.5252 18.9373 17.8001 18.843 18.0581C18.7487 18.3162 18.6019 18.5519 18.4119 18.7505C18.2219 18.949 17.9929 19.106 17.7392 19.2116C17.4855 19.3172 17.2127 19.3691 16.938 19.364C16.6576 19.3639 16.3807 19.3025 16.1266 19.1841C15.8725 19.0658 15.6474 18.8933 15.4669 18.6787C15.2865 18.4642 15.1551 18.2128 15.0821 17.9421C15.009 17.6715 14.996 17.3882 15.044 17.112C15.5163 15.1995 16.0861 13.3124 16.751 11.458C16.7659 11.4157 16.7933 11.3789 16.8294 11.3525C16.8656 11.326 16.9089 11.311 16.9537 11.3095C16.9985 11.3079 17.0427 11.32 17.0806 11.344C17.1185 11.368 17.1482 11.4028 17.166 11.444C18.0005 13.2985 18.603 15.2489 18.96 17.251Z" fill="white"/>
</g>
</svg>
