<svg width="33" height="24" viewBox="0 0 33 24" fill="none" xmlns="http://www.w3.org/2000/svg">
<g id="Group 3203">
<path id="Path 1892" d="M12.8551 21.153C10.7551 22.941 6.32308 22.236 4.55508 20.883C3.59879 20.1893 2.84119 19.2568 2.35794 18.1787C1.87469 17.1006 1.68269 15.9147 1.8011 14.7392C1.91951 13.5637 2.34419 12.4398 3.03274 11.4798C3.7213 10.5197 4.64964 9.75709 5.72508 9.268C6.18508 9.041 6.69208 8.91201 7.16008 8.70201C7.33612 8.62861 7.47867 8.49249 7.56009 8.32001C7.92767 7.15698 8.67483 6.15091 9.68197 5.46286C10.6891 4.77481 11.898 4.44457 13.1151 4.52501C14.3193 4.59158 15.475 5.02224 16.4291 5.76001L16.7961 5.05101C17.3572 4.05542 18.191 3.24078 19.1993 2.70294C20.2077 2.1651 21.3487 1.92643 22.4881 2.015C23.6763 2.07196 24.8183 2.49292 25.7592 3.22078C26.7001 3.94864 27.3944 4.94821 27.7481 6.084C28.0883 7.15278 28.1601 8.2889 27.9571 9.392C30.3021 10.267 31.4231 12.762 31.5041 15.292C31.5136 16.826 31.021 18.3209 30.1014 19.5487C29.1818 20.7765 27.8858 21.6697 26.4111 22.092C23.3531 22.768 22.3241 21.85 21.4281 21.201C15.5681 23.296 12.9361 21.201 12.8551 21.153Z" stroke="#9BC6F8" stroke-width="2.5" stroke-miterlimit="10"/>
<path id="Ellipse 431" d="M24.9019 17.197C25.9739 17.197 26.8429 16.328 26.8429 15.256C26.8429 14.184 25.9739 13.315 24.9019 13.315C23.83 13.315 22.9609 14.184 22.9609 15.256C22.9609 16.328 23.83 17.197 24.9019 17.197Z" fill="white"/>
<path id="Ellipse 432" d="M21.8419 11.509C23.0867 11.509 24.0959 10.4998 24.0959 9.25498C24.0959 8.01013 23.0867 7.00098 21.8419 7.00098C20.597 7.00098 19.5879 8.01013 19.5879 9.25498C19.5879 10.4998 20.597 11.509 21.8419 11.509Z" fill="white"/>
<path id="Ellipse 433" d="M14.9181 16.466C16.1629 16.466 17.1721 15.4569 17.1721 14.212C17.1721 12.9672 16.1629 11.958 14.9181 11.958C13.6732 11.958 12.6641 12.9672 12.6641 14.212C12.6641 15.4569 13.6732 16.466 14.9181 16.466Z" fill="white"/>
<path id="Ellipse 434" d="M8.89707 17.376C10.1419 17.376 11.1511 16.3669 11.1511 15.122C11.1511 13.8772 10.1419 12.868 8.89707 12.868C7.65222 12.868 6.64307 13.8772 6.64307 15.122C6.64307 16.3669 7.65222 17.376 8.89707 17.376Z" fill="white"/>
</g>
</svg>
