<svg width="21" height="25" viewBox="0 0 21 25" fill="none" xmlns="http://www.w3.org/2000/svg">
<path id="Path 1889" d="M15.3461 11.859H5.7901C5.56947 11.8418 5.35102 11.9126 5.1824 12.0559C5.01379 12.1992 4.9087 12.4035 4.89009 12.624V16.703C4.9087 16.9235 5.01379 17.1277 5.1824 17.271C5.35102 17.4143 5.56947 17.4851 5.7901 17.468H15.3461C15.5659 17.4838 15.7831 17.4123 15.9506 17.2691C16.1181 17.1259 16.2225 16.9225 16.2411 16.703V12.624C16.2225 12.4044 16.1181 12.201 15.9506 12.0578C15.7831 11.9146 15.5659 11.8432 15.3461 11.859ZM14.4461 15.938H6.6861V13.389H14.4501L14.4461 15.938ZM15.3461 19.079H5.7901C5.56947 19.0618 5.35102 19.1326 5.1824 19.2759C5.01379 19.4192 4.9087 19.6235 4.89009 19.844V23.923C4.9087 24.1435 5.01379 24.3477 5.1824 24.491C5.35102 24.6343 5.56947 24.7051 5.7901 24.688H15.3461C15.5659 24.7038 15.7831 24.6323 15.9506 24.4891C16.1181 24.3459 16.2225 24.1425 16.2411 23.923V19.842C16.222 19.6228 16.1174 19.4198 15.9499 19.2771C15.7825 19.1343 15.5656 19.0632 15.3461 19.079ZM14.4461 23.158H6.6861V20.609H14.4501L14.4461 23.158ZM20.7341 8.94097L11.1981 0.779957C11.02 0.632344 10.7954 0.552649 10.5641 0.554981C10.3328 0.552649 10.1082 0.632344 9.9301 0.779957L0.376099 8.94097C0.294344 9.00535 0.228253 9.08746 0.182816 9.18108C0.137378 9.2747 0.11377 9.3774 0.11377 9.48146C0.11377 9.58553 0.137378 9.68826 0.182816 9.78188C0.228253 9.8755 0.294344 9.95757 0.376099 10.022C0.554612 10.1695 0.779517 10.2492 1.01109 10.247H20.1011C20.3217 10.2639 20.54 10.1929 20.7085 10.0497C20.8771 9.9064 20.9822 9.70239 21.0011 9.48198C20.9995 9.3783 20.9752 9.2762 20.93 9.18291C20.8847 9.08962 20.8195 9.00739 20.7391 8.94197L20.7341 8.94097Z" fill="white"/>
</svg>
