<svg width="24" height="25" viewBox="0 0 24 25" fill="none" xmlns="http://www.w3.org/2000/svg">
<g id="Group 3197">
<path id="Path 1880" d="M9.168 0.508057H1.31C0.962564 0.508057 0.629355 0.646074 0.383682 0.891747C0.13801 1.13742 0 1.47062 0 1.81805V12.2971C0 12.6445 0.13801 12.9777 0.383682 13.2234C0.629355 13.469 0.962564 13.6071 1.31 13.6071H9.168C9.51543 13.6071 9.84864 13.469 10.0943 13.2234C10.34 12.9777 10.478 12.6445 10.478 12.2971V1.81805C10.478 1.47062 10.34 1.13742 10.0943 0.891747C9.84864 0.646074 9.51543 0.508057 9.168 0.508057ZM8.989 11.2011C8.989 11.3936 8.9125 11.5783 8.77635 11.7144C8.6402 11.8506 8.45555 11.9271 8.263 11.9271H2.215C2.02245 11.9271 1.8378 11.8506 1.70164 11.7144C1.56549 11.5783 1.489 11.3936 1.489 11.2011V2.85106C1.489 2.65851 1.56549 2.47385 1.70164 2.3377C1.8378 2.20155 2.02245 2.12505 2.215 2.12505H8.263C8.45555 2.12505 8.6402 2.20155 8.77635 2.3377C8.9125 2.47385 8.989 2.65851 8.989 2.85106V11.2011Z" fill="white"/>
<path id="Rectangle 2591" d="M9.169 16.2261H1.31C0.586507 16.2261 0 16.8126 0 17.5361V22.7751C0 23.4986 0.586507 24.0851 1.31 24.0851H9.169C9.89249 24.0851 10.479 23.4986 10.479 22.7751V17.5361C10.479 16.8126 9.89249 16.2261 9.169 16.2261Z" fill="white"/>
<path id="Path 1881" d="M22.2671 12.2971H14.4081C14.2361 12.2969 14.0657 12.3307 13.9067 12.3965C13.7477 12.4623 13.6032 12.5588 13.4815 12.6805C13.3599 12.8021 13.2634 12.9466 13.1976 13.1056C13.1318 13.2646 13.098 13.435 13.0981 13.6071V22.7751C13.098 22.9471 13.1318 23.1175 13.1976 23.2765C13.2634 23.4355 13.3599 23.58 13.4815 23.7017C13.6032 23.8233 13.7477 23.9198 13.9067 23.9856C14.0657 24.0514 14.2361 24.0852 14.4081 24.0851H22.2671C22.6146 24.0851 22.9478 23.947 23.1935 23.7014C23.4391 23.4557 23.5771 23.1225 23.5771 22.7751V13.6071C23.5771 13.2596 23.4391 12.9264 23.1935 12.6807C22.9478 12.4351 22.6146 12.2971 22.2671 12.2971ZM22.0871 21.8891C22.0871 22.0747 22.0134 22.2528 21.8821 22.384C21.7508 22.5153 21.5728 22.5891 21.3871 22.5891H15.2871C15.1952 22.5891 15.1042 22.571 15.0193 22.5358C14.9343 22.5006 14.8572 22.449 14.7922 22.384C14.7272 22.319 14.6756 22.2419 14.6404 22.1569C14.6052 22.072 14.5871 21.981 14.5871 21.8891V14.4891C14.5871 14.3971 14.6052 14.3061 14.6404 14.2212C14.6756 14.1362 14.7272 14.0591 14.7922 13.9941C14.8572 13.9291 14.9343 13.8775 15.0193 13.8423C15.1042 13.8072 15.1952 13.7891 15.2871 13.7891H21.3871C21.5728 13.7891 21.7508 13.8628 21.8821 13.9941C22.0134 14.1254 22.0871 14.3034 22.0871 14.4891V21.8891Z" fill="white"/>
<path id="Rectangle 2592" d="M22.2671 0.508057H14.4081C13.6847 0.508057 13.0981 1.09456 13.0981 1.81806V8.36706C13.0981 9.09055 13.6847 9.67706 14.4081 9.67706H22.2671C22.9906 9.67706 23.5771 9.09055 23.5771 8.36706V1.81806C23.5771 1.09456 22.9906 0.508057 22.2671 0.508057Z" fill="white"/>
</g>
</svg>
