<svg width="24" height="28" viewBox="0 0 24 28" fill="none" xmlns="http://www.w3.org/2000/svg">
<g id="Group 3202">
<path id="Path 1890" d="M7.57471 16.435C8.83571 16.435 10.0997 16.389 11.3587 16.452C12.1867 16.493 12.5077 16.264 12.4587 15.386C12.3847 14.127 12.4397 12.86 12.4397 11.61C14.6937 11.222 17.1207 13.31 17.3867 15.795C17.4745 16.4633 17.4243 17.1426 17.239 17.7907C17.0538 18.4388 16.7375 19.042 16.3097 19.5629C15.882 20.0839 15.3519 20.5115 14.7522 20.8193C14.1525 21.1271 13.496 21.3086 12.8234 21.3524C12.1508 21.3963 11.4763 21.3017 10.8417 21.0744C10.2071 20.8471 9.62591 20.492 9.13409 20.0311C8.64228 19.5701 8.25031 19.0131 7.98242 18.3946C7.71454 17.776 7.57645 17.1091 7.57671 16.435H7.57471Z" fill="white"/>
<path id="Path 1891" d="M11.4859 10.866V15.656H6.79891C6.37491 13.308 8.9909 10.612 11.4859 10.866Z" fill="white"/>
<g id="report">
<path id="Path 1892" d="M0.94285 14.695V3.07199C0.923895 2.79705 0.960491 2.52109 1.05045 2.26059C1.14042 2.0001 1.28192 1.76041 1.4665 1.55576C1.65108 1.35111 1.87498 1.1857 2.12484 1.06943C2.37471 0.95316 2.64542 0.888386 2.92085 0.878971H16.5319C16.6259 0.873005 16.72 0.88786 16.8077 0.922428C16.8953 0.956996 16.9742 1.01044 17.0389 1.07898C19.3599 3.41198 20.6858 4.73799 23.0158 7.05799C23.0861 7.12173 23.1415 7.20002 23.1783 7.28742C23.2151 7.37482 23.2323 7.46923 23.2288 7.564C23.2288 14.164 23.2288 18.764 23.2288 25.359C23.2352 25.6327 23.1876 25.9051 23.0888 26.1604C22.9899 26.4157 22.8417 26.6491 22.6526 26.8472C22.4636 27.0452 22.2373 27.2041 21.9869 27.3148C21.7364 27.4254 21.4666 27.4856 21.1929 27.492H3.38185C2.73516 27.492 2.11494 27.2351 1.65757 26.778C1.2002 26.3208 0.943115 25.7007 0.94285 25.054C0.94085 20.932 0.94085 18.813 0.94285 14.695ZM14.6838 3.31598C14.6838 3.27383 14.6755 3.23209 14.6594 3.19315C14.6433 3.1542 14.6196 3.1188 14.5898 3.08899C14.56 3.05919 14.5246 3.03554 14.4857 3.01941C14.4468 3.00328 14.405 2.995 14.3628 2.995H5.33586C4.77215 2.95513 4.21568 3.1408 3.78886 3.51117C3.36204 3.88155 3.09982 4.40627 3.05985 4.96997C3.05185 5.07797 3.05985 23.07 3.05985 23.07C3.03699 23.3492 3.06934 23.6301 3.15507 23.8968C3.24079 24.1635 3.37821 24.4107 3.55947 24.6243C3.74074 24.8378 3.9623 25.0137 4.2115 25.1416C4.4607 25.2696 4.73265 25.3472 5.01185 25.37C5.12768 25.379 5.24403 25.379 5.35986 25.37H18.8169C19.096 25.3913 19.3766 25.3574 19.6426 25.2702C19.9086 25.183 20.1549 25.0442 20.3673 24.8618C20.5797 24.6794 20.754 24.457 20.8804 24.2072C21.0068 23.9574 21.0827 23.6851 21.1038 23.406C21.1118 23.3005 21.1118 23.1945 21.1038 23.089V9.72397C21.1038 9.68182 21.0955 9.64008 21.0794 9.60114C21.0633 9.56219 21.0396 9.52682 21.0098 9.49701C20.98 9.46721 20.9446 9.44356 20.9057 9.42743C20.8667 9.4113 20.825 9.40299 20.7828 9.40299H16.9699C16.6904 9.42414 16.4095 9.39005 16.1432 9.30265C15.877 9.21524 15.6305 9.07624 15.4179 8.89359C15.2054 8.71093 15.0309 8.4882 14.9044 8.2381C14.778 7.98801 14.702 7.71543 14.6809 7.43598C14.6779 7.33098 14.6838 3.31598 14.6838 3.31598Z" fill="white"/>
</g>
</g>
</svg>
