<svg width="13" height="15" viewBox="0 0 13 15" fill="none" xmlns="http://www.w3.org/2000/svg">
<path id="Path 1629" d="M6.52633 7.75C7.21641 7.75 7.89099 7.54473 8.46477 7.16015C9.03855 6.77556 9.48575 6.22894 9.74984 5.58939C10.0139 4.94985 10.083 4.24612 9.94838 3.56719C9.81376 2.88825 9.48145 2.26461 8.99349 1.77513C8.50553 1.28564 7.88384 0.952301 7.20702 0.817253C6.5302 0.682205 5.82866 0.751516 5.19111 1.01642C4.55356 1.28133 4.00864 1.72993 3.62525 2.30551C3.24186 2.88108 3.03723 3.55777 3.03723 4.25C3.03723 5.17826 3.40483 6.0685 4.05917 6.72487C4.7135 7.38125 5.60096 7.75 6.52633 7.75ZM8.9687 8.625H8.51312C7.89002 8.91327 7.21201 9.06255 6.52583 9.06255C5.83965 9.06255 5.16164 8.91327 4.53854 8.625H4.08396C3.11241 8.62527 2.18072 9.01254 1.49373 9.70168C0.806739 10.3908 0.420674 11.3254 0.42041 12.3L0.42041 13.437C0.42041 13.7851 0.558176 14.1189 0.803428 14.3651C1.04868 14.6113 1.38135 14.7497 1.72832 14.75H11.3233C11.6701 14.7497 12.0027 14.6114 12.2479 14.3654C12.4931 14.1194 12.631 13.7859 12.6313 13.438V12.3C12.631 11.3256 12.2451 10.3911 11.5583 9.70203C10.8715 9.01292 9.94008 8.62553 8.9687 8.625Z" fill="#073263"/>
</svg>
